<svg xmlns="http://www.w3.org/2000/svg" viewBox="0 0 417.2 417.2"><defs><style>.cls-1{fill:#6ebf68;stroke:#cc2b4a;stroke-miterlimit:10;stroke-width:4px;}.cls-2{fill:#fff;}.cls-3{fill:#2790d1;}.cls-4{fill:#c62846;}.cls-5,.cls-6{isolation:isolate;font-family:AgencyFB-Bold, Agency FB;font-weight:700;}.cls-5{font-size:30.17px;}.cls-6{font-size:29.95px;}</style></defs><title>logo</title><g id="Layer_2" data-name="Layer 2"><g id="Layer_1-2" data-name="Layer 1"><circle class="cls-1" cx="208.6" cy="208.6" r="206.6"/><ellipse class="cls-2" cx="208.7" cy="210.3" rx="131.4" ry="129.1"/><path class="cls-3" d="M208.6,60.7a148,148,0,1,0,148,148h0A148,148,0,0,0,208.6,60.7Zm-39.5,45a56,56,0,1,1,0,79.2,55.95,55.95,0,0,1,0-79.2Zm95.5,192.6a56,56,0,0,1-56-56,56,56,0,1,1-56-56,56,56,0,0,1,56,56,56,56,0,1,1,56,56Z"/><path class="cls-4" d="M208.6,62.6A146.24,146.24,0,0,1,354.8,208.7c.1,80.7-65.4,146.1-146.1,146.2a146.15,146.15,0,1,1-.1-292.3m0-4a150,150,0,1,0,150,150A150.05,150.05,0,0,0,208.6,58.6Z"/><text class="cls-5" transform="matrix(0.71, -0.7, 0.7, 0.71, 114.01, 75.9)">*</text><text class="cls-6" transform="matrix(0.74, 0.67, -0.67, 0.74, 290.24, 66.96)">*</text><path d="M321.2,87l13.5-21-1-1.1,3-2.9,6.4,6.5-3,2.9L339,70.3l-6.3,10,9.8-6.4-1-1,3-2.9,5.4,5.5-3,2.9-1.1-1.1-6.5,10.2,10.1-6.6-1.1-1.1,3-2.9,5.7,5.8-3,2.9-1-1L332,98l-3.5-3.5,6.8-10.6-10.5,6.8Z"/><path d="M65.5,123.6,62,121.3l1.5-2.3L47,108.3l-1.5,2.3L42,108.3,48.7,98l3.5,2.3-1.6,2.4,16.5,10.7,1.6-2.4,3.5,2.3Z"/><path d="M79.4,104.7a8.4,8.4,0,0,1-7.4,3c-3.1-.3-6.4-1.8-9.9-4.6s-5.6-5.6-6.6-8.6a8,8,0,0,1,1.3-7.9,7.84,7.84,0,0,1,7.4-3c3.1.3,6.4,1.8,9.9,4.6s5.6,5.7,6.6,8.7A7.9,7.9,0,0,1,79.4,104.7Zm-3.7-3a1.57,1.57,0,0,0,.3-1.6,12.42,12.42,0,0,0-1.7-2.3c-1-1-2.6-2.3-4.8-4.1s-3.9-3-5-3.8a4.82,4.82,0,0,0-2.6-1.2,1.72,1.72,0,0,0-1.5.6,1.57,1.57,0,0,0-.3,1.6,7.64,7.64,0,0,0,1.7,2.3c1,1,2.6,2.3,4.8,4.1s3.9,3,5,3.8a4.82,4.82,0,0,0,2.6,1.2A1.43,1.43,0,0,0,75.7,101.7Z"/><path d="M86.3,95.5l-2.9-3,1.3-1.2L71.1,77.1l-1.3,1.2-2.9-3,5.8-5.6a117.11,117.11,0,0,1,15.7,8.2l.3-.2c-3-2.9-4.7-4.5-5.1-4.9l-3.8-4-1.2,1.1-2.9-3L81,61.8l2.9,3-1.1,1.1L99.5,83.3l-3.7,3.6-5.4-2.6c-2.4-1.1-4.6-2.2-6.6-3.2s-4.1-2.2-6.3-3.5l-.3.3q3.6,3.3,6.9,6.6l3.8,4L89,87.4l2.9,3Z"/><path d="M341.6,110a8,8,0,0,1-1-7.9q1.65-4.5,6.9-8.4c3.5-2.6,6.9-4,10-4.2a7.7,7.7,0,0,1,7.3,3.3,8,8,0,0,1,1,7.9q-1.65,4.5-6.9,8.4c-3.5,2.6-6.9,4-10,4.2A7.7,7.7,0,0,1,341.6,110Zm3.8-2.8a1.75,1.75,0,0,0,1.4.7,5.41,5.41,0,0,0,2.6-1.1c1.2-.7,2.9-1.9,5.2-3.6s3.9-3,4.9-3.9a5.48,5.48,0,0,0,1.8-2.2,1.57,1.57,0,0,0-.3-1.6,1.51,1.51,0,0,0-1.4-.7,5.41,5.41,0,0,0-2.6,1.1,46.65,46.65,0,0,0-5.1,3.6c-2.3,1.7-3.9,3-4.9,3.9a5.48,5.48,0,0,0-1.8,2.2A1.36,1.36,0,0,0,345.4,107.2Z"/><path d="M348.8,119.2l3.7-2,.8,1.5,17.2-9.6-.8-1.5,3.7-2,5.1,9.1a7.88,7.88,0,0,1-2.2,10.9c-.3.2-.6.3-.9.5a6.1,6.1,0,0,1-6.2.3l-7.7,6.8.6,1-3.7,2-3-5.4,9.5-8.3-1.1-1.9-7.1,4,.8,1.5-3.7,2Zm25.1-4.4-6.7,3.8c.8,1.4,1.6,2.2,2.3,2.2a5.29,5.29,0,0,0,3-.9,4.84,4.84,0,0,0,2.1-1.9C375,117.4,374.7,116.3,373.9,114.8Z"/><path d="M358.7,137.1l3.9-1.6.9,2.3,18.2-7.4-.9-2.3,3.9-1.6,4.6,11.3-3.9,1.6-1.2-2.9L366,143.9l1.8,4.4,7.7-3.1,1.9,4.6-11.6,4.8Z"/><path d="M366.2,155.6l4.1-1.1.5,1.9,19-5.1-.5-1.9,4.1-1.1,2.5,9.4a8.37,8.37,0,0,1-1.8,7.9c-2,2.4-5,4.2-9.2,5.3-4,1.1-7.5,1.2-10.4.2a8.56,8.56,0,0,1-5.7-6.1Zm25.3,2.1-19,5.1a3.36,3.36,0,0,0,1.3,2,5.58,5.58,0,0,0,3.1.4,32.54,32.54,0,0,0,6.2-1.3,30.45,30.45,0,0,0,6-2.1,6,6,0,0,0,2.3-1.9,3.33,3.33,0,0,0,.1-2.2Z"/><path d="M397.5,187l4.2-.3.6,10-4.2.3-.1-1.2-17.1,1.1c-2,.1-2.9.9-2.9,2.2.1,1.5,1.2,2.1,3.4,2l16.8-1.1-.1-1.2,4.2-.3.5,7.6-4.2.3-.1-2.2-17,1.1a7.54,7.54,0,0,1-5.4-1.6,7.06,7.06,0,0,1-2.4-5.1,8.1,8.1,0,0,1,1.6-6,8,8,0,0,1,5.6-2.4l16.6-1.1Z"/><path d="M374.8,209.4l9.1.4-.2,4.2a8.57,8.57,0,0,0-4.2.5,2,2,0,0,0-.8,2.7,2.65,2.65,0,0,0,.5.6,3.72,3.72,0,0,0,2,.7,5.45,5.45,0,0,0,2.2-.5,16.89,16.89,0,0,0,3.6-3,19.32,19.32,0,0,1,5.3-4.1,7.91,7.91,0,0,1,4-.7,7.08,7.08,0,0,1,4.8,1.9,5.18,5.18,0,0,1,1.7,4.2,5.45,5.45,0,0,1-.5,2.2,8.7,8.7,0,0,1-1.7,2.1l1.8.1-.2,4.2-8.5-.4.2-4.2a6.36,6.36,0,0,0,3.6-.5,2.06,2.06,0,0,0,1-1.7,1.55,1.55,0,0,0-.5-1.4,4,4,0,0,0-1.5-.6,3.84,3.84,0,0,0-2.1.5,26.22,26.22,0,0,0-2.5,2.2,20.67,20.67,0,0,1-5.8,4.8,11.17,11.17,0,0,1-4.8,1,7.85,7.85,0,0,1-5.3-2.1,5.71,5.71,0,0,1-1.9-4.6,5.84,5.84,0,0,1,2.2-4.2l-1.8-.1Z"/><path d="M374.3,225.8l4.1.8-.3,1.9,19.4,3.6.3-1.9,4.1.8-2,10.7-11.2-.3-.1.5,10.6,3.7-2.1,11.5-4.1-.8.3-1.8-19.4-3.6-.3,1.8-4.1-.8,1.8-9.8,4.1.8-.3,1.5,19.8,3.7.1-.4-23.1-8.8.4-2.2,24.7-.1.1-.5-19.8-3.7-.3,1.4-4.1-.8Z"/><path d="M369.1,252.5l4,1.4-.6,1.8,17.6,9.3.6-1.7,4,1.4-5.1,14.7-4-1.4.6-1.8-19.7-3.4-.6,1.7-4-1.4L365,264l4,1.4-.6,1.7,5.2,1.1,1.5-4.3-4.7-2.3-.6,1.6-4-1.4Zm9.3,12.7-1.2,3.4,11.5,2.4.2-.7Z"/><path d="M361.6,273.5l3.8,1.8-.8,1.6,17.8,8.5.8-1.6,3.8,1.8-3.5,7.3a130,130,0,0,1-17.6-2.1l-.2.3c3.8,1.6,6,2.5,6.5,2.8l5,2.4.7-1.5,3.8,1.8-3.2,6.6-3.8-1.8.7-1.4-21.8-10.4,2.2-4.7,6,.5c2.6.2,5.1.4,7.4.7s4.7.6,7.1,1l.2-.3c-3-1.2-5.9-2.4-8.7-3.8l-5-2.4-.7,1.4-3.8-1.8Z"/><path d="M346.5,300.4a8.14,8.14,0,0,1,7.1-3.6c3.2,0,6.6,1.2,10.3,3.6a19,19,0,0,1,7.4,8,8.24,8.24,0,0,1-7.7,11.7c-3.1,0-6.6-1.2-10.2-3.6a19,19,0,0,1-7.4-8A8.1,8.1,0,0,1,346.5,300.4Zm4,2.6a1.57,1.57,0,0,0-.2,1.6,8,8,0,0,0,2,2.1q1.65,1.35,5.1,3.6a58.4,58.4,0,0,0,5.3,3.3,7.94,7.94,0,0,0,2.7,1,1.6,1.6,0,0,0,1.4-.8,1.84,1.84,0,0,0,.2-1.6,8,8,0,0,0-2-2.1q-1.65-1.35-5.1-3.6a58.4,58.4,0,0,0-5.3-3.3,7.94,7.94,0,0,0-2.7-1A1.6,1.6,0,0,0,350.5,303Z"/><path d="M336.3,314.3l22.5,11.1,1.3-1.5,3.2,2.7-6.7,7.8-3.2-2.7,1.3-1.6-12.3-6.2,8.1,11.1,1.5-1.8,3.2,2.7-6.3,7.4-3.2-2.7,1.3-1.5-14.2-20.8Z"/><path d="M345.9,346.1l-4,3.9-3.5-3.6-3.1-5.8,1.4-1.4,5.8,3.3Z"/><path d="M320.3,331.9l5.8,7-3.2,2.7c-1.4-1.6-2.4-2.6-3.2-2.8a2,2,0,0,0-2,.4,1.73,1.73,0,0,0-.7,1.6,2.84,2.84,0,0,0,.9,1.9,5,5,0,0,0,1.9,1.3,24.22,24.22,0,0,0,4.7.7,18.38,18.38,0,0,1,6.6,1.2,9,9,0,0,1,3.3,2.5,6.55,6.55,0,0,1,1.8,4.8,5.11,5.11,0,0,1-2,4.1,7.24,7.24,0,0,1-1.9,1.1,8.22,8.22,0,0,1-2.7.2l1.1,1.4-3.2,2.7-5.4-6.5,3.2-2.7a7.2,7.2,0,0,0,2.8,2.4,2.1,2.1,0,0,0,2-.4,1.71,1.71,0,0,0,.7-1.3,2,2,0,0,0-.6-1.5,3.6,3.6,0,0,0-1.8-1.2,18.41,18.41,0,0,0-3.3-.3,23.21,23.21,0,0,1-7.4-1,9.62,9.62,0,0,1-4-2.9,8,8,0,0,1-2.1-5.3,5.28,5.28,0,0,1,2.1-4.5,5.9,5.9,0,0,1,4.6-1.2l-1.1-1.4Z"/><path d="M291.1,364.3l-5.2,1.2a10.6,10.6,0,0,1-.9-7,6.59,6.59,0,0,1,3.5-4.6,7.58,7.58,0,0,1,7.7.2c2.7,1.4,5.3,4.2,7.6,8.4,2.1,3.8,3.2,7.2,3.1,10.1s-1.1,4.9-3,6a5,5,0,0,1-4.6-.1h-.1l.9,1.7-3.9,2.2-4.6-8.3,3.9-2.2c1.9,2.9,3.5,4,4.7,3.3.8-.5,1-1.4.5-2.7-1-2.2-2.1-4.4-3.3-6.5a39.2,39.2,0,0,0-4.4-7c-.9-1-1.7-1.3-2.6-.8-.7.4-.9,1-.8,2A15.57,15.57,0,0,0,291.1,364.3Z"/><path d="M271.3,362.1a8,8,0,0,1,7.9,1,18.19,18.19,0,0,1,6.4,8.8c1.7,4.1,2.2,7.7,1.6,10.7a7.93,7.93,0,0,1-5,6.3,8,8,0,0,1-7.9-1c-2.6-1.8-4.7-4.7-6.4-8.8s-2.2-7.7-1.6-10.8A7.79,7.79,0,0,1,271.3,362.1Zm1.7,4.3a1.55,1.55,0,0,0-1,1.2,6.58,6.58,0,0,0,.4,2.8c.4,1.3,1.1,3.3,2.2,5.9.8,1.9,1.6,3.8,2.6,5.7a6.58,6.58,0,0,0,1.7,2.3,1.75,1.75,0,0,0,2.6-1.1,6.58,6.58,0,0,0-.4-2.8c-.4-1.3-1.1-3.3-2.2-5.9s-1.9-4.5-2.5-5.7a6.58,6.58,0,0,0-1.7-2.3A2.46,2.46,0,0,0,273,366.4Z"/><path d="M260.9,366.9l1,4.1-1.9.5,4.8,19.1,1.9-.5,1,4.1-10.6,2.6-4.3-10.3-.5.1,1,11.1-11.4,2.8-1-4.1,1.8-.4L238,376.9l-1.8.4-1-4.1,9.7-2.4,1,4.1-1.4.4,4.8,19.5.4-.1L248.3,370l2.1-.5L260.6,392l.5-.1-4.8-19.5-1.4.3-1-4.1Z"/><path d="M233.9,373.3l.4,4.2-2,.2,1.9,19.6,2-.2.4,4.2-9.7.9a10.12,10.12,0,0,1-6.8-1.3,6.51,6.51,0,0,1-2.9-5.2c-.3-3,.8-5,3.3-6.2a7,7,0,0,1-5-6.2,7.68,7.68,0,0,1,2-6.3,11.23,11.23,0,0,1,7.1-2.9Zm-7.5,13.2-.8-8.2a7.79,7.79,0,0,0-2.1.4,1.72,1.72,0,0,0-1,1.2,8.78,8.78,0,0,0-.1,2.8,6.37,6.37,0,0,0,.7,2.7,1.72,1.72,0,0,0,1.2,1A14.77,14.77,0,0,0,226.4,386.5Zm1.1,11.6-.7-7.8c-1.5.1-2.4.5-2.7,1.1a7,7,0,0,0-.3,2.9,5.83,5.83,0,0,0,.6,2.6,2.16,2.16,0,0,0,1.2,1.1A12.1,12.1,0,0,0,227.5,398.1Z"/><path d="M214.6,375.2l-.1,4.2-1.9-.1L209,398.9h1.8l-.1,4.2-15.5-.4.1-4.2,1.9.1-2.7-19.8h-1.8l.1-4.2,9.6.3-.1,4.2h-1.8l.5,5.3,4.6.1.8-5.2h-1.7l.1-4.2Zm-9.4,12.6-3.6-.1,1.1,11.7h.8Z"/><path d="M189.7,374l-.6,4.2-2.3-.3-2.9,19.5,2.3.3.9-6.1,4.2.6-1.5,10.3-19.6-2.9,1.5-10.3,4.2.6L175,396l2.3.3,2.9-19.5-2.2-.3.6-4.2Z"/><path d="M160.7,368.1l-3,8.6-4-1.4a8.68,8.68,0,0,0,.7-4.2,2.12,2.12,0,0,0-1.4-1.5,1.72,1.72,0,0,0-1.7.2,3,3,0,0,0-1.2,1.7,4.45,4.45,0,0,0-.1,2.3,16.32,16.32,0,0,0,1.8,4.3,24.09,24.09,0,0,1,2.4,6.3,11.24,11.24,0,0,1-.4,4.1,6.91,6.91,0,0,1-3.1,4,5.11,5.11,0,0,1-4.5.4,4.53,4.53,0,0,1-1.9-1.1,7.33,7.33,0,0,1-1.6-2.3l-.6,1.7-4-1.4,2.8-8,4,1.4a7.41,7.41,0,0,0-.6,3.6,2.12,2.12,0,0,0,1.4,1.5,1.6,1.6,0,0,0,1.5-.1,2.56,2.56,0,0,0,1-1.3,3,3,0,0,0,.1-2.1,10.32,10.32,0,0,0-1.4-3c-1.7-2.9-2.7-5.2-2.9-6.9a10.25,10.25,0,0,1,.4-4.9,7.89,7.89,0,0,1,3.5-4.5,5.52,5.52,0,0,1,5-.5,5.83,5.83,0,0,1,3.4,3.3l.6-1.7Z"/><path d="M141.1,360.7l-1.8,3.8-2.1-1-2.8,5.9-.6,14.3,1.7.8-1.8,3.8-9.7-4.6,1.8-3.8,2.3,1.1.5-9-6.8,6,2.3,1.1-1.8,3.8-8.2-3.9,1.8-3.8,1.8.8,10.8-9.5,2.8-5.9-2-.9,1.8-3.8Z"/><path d="M125,352.7l-4.9,7.7-3.5-2.3c1.1-1.8,1.7-3.1,1.7-3.9a2.23,2.23,0,0,0-1-1.8,1.72,1.72,0,0,0-1.7-.2,3.64,3.64,0,0,0-1.6,1.4,4.28,4.28,0,0,0-.6,2.2,14.35,14.35,0,0,0,.8,4.6,19,19,0,0,1,.9,6.7,9.07,9.07,0,0,1-1.3,3.8,7.07,7.07,0,0,1-4,3.2,5.12,5.12,0,0,1-4.5-.6,5.72,5.72,0,0,1-1.6-1.5,8.25,8.25,0,0,1-1-2.6l-.9,1.5-3.5-2.3,4.6-7.1,3.5,2.3a6.36,6.36,0,0,0-1.4,3.4,2.06,2.06,0,0,0,1,1.7,1.4,1.4,0,0,0,1.4.2,2,2,0,0,0,1.2-1,3.61,3.61,0,0,0,.6-2,11.43,11.43,0,0,0-.7-3.2,23.52,23.52,0,0,1-1.3-7.4,8.84,8.84,0,0,1,1.6-4.7,8.65,8.65,0,0,1,4.4-3.6,5.54,5.54,0,0,1,5,.6,6.06,6.06,0,0,1,2.6,4l.9-1.5Z"/><path d="M108.1,341.4l-2.6,3.3-1.8-1.4L91.3,358.6l1.8,1.5,3.9-4.8,3.3,2.6L93.8,366,78.4,353.5l6.5-8.1,3.3,2.6-3.9,4.8,1.8,1.5L98.5,339l-1.8-1.4,2.6-3.3Z"/><path d="M95.5,331.1l-3,2.9-1.7-1.8L76.6,345.9l1.7,1.8-3,2.9L62.1,336.9l6.4-6.2,3.5,3.6-3.4,3.3,3.4,3.5,5.4-5.2-2.6-2.7,3-2.9,2.6,2.7,5.8-5.6-3.4-3.5-3.6,3.4-3.5-3.6,6.6-6.4Z"/><path d="M81,316.3l-3.4,2.4-1.1-1.6-16,11.4,1.1,1.6-3.4,2.4-6.4-8.9,8-7.8-.3-.4-10,5-6.8-9.5,3.4-2.4,1.1,1.5,16-11.4-1.1-1.5,3.4-2.4,5.8,8.1-3.4,2.4L67,304,50.6,315.7l.2.4,22.4-10.5,1.3,1.8L57.4,325.2l.3.4,16.4-11.7-.9-1.2,3.4-2.4Z"/><path d="M64.9,292.9l-8.1,4.3-2-3.7c1.9-1,3-1.8,3.4-2.5a1.88,1.88,0,0,0-.7-2.7c-.2-.1-.5-.2-.7-.3a3.14,3.14,0,0,0-2.1.5,4.36,4.36,0,0,0-1.7,1.6,17.89,17.89,0,0,0-1.6,4.4,19.71,19.71,0,0,1-2.5,6.2,8.93,8.93,0,0,1-3.1,2.7,6.74,6.74,0,0,1-5,.8,5.15,5.15,0,0,1-3.6-2.8,5.22,5.22,0,0,1-.7-2.1,8.42,8.42,0,0,1,.4-2.7l-1.6.8-2-3.7,7.5-4,2,3.7a7.73,7.73,0,0,0-2.9,2.2,2.33,2.33,0,0,0,0,2,1.44,1.44,0,0,0,1.1.9,2.22,2.22,0,0,0,1.6-.3,3.62,3.62,0,0,0,1.5-1.5,11.24,11.24,0,0,0,1-3.1c.8-3.3,1.6-5.7,2.6-7.1a9.83,9.83,0,0,1,3.7-3.3,7.85,7.85,0,0,1,5.6-.9,5.57,5.57,0,0,1,4,3,6.4,6.4,0,0,1,.3,4.7l1.6-.8Z"/><path d="M52.9,268.1l-4,1.2-.6-1.8-19.7,2.9.5,1.7-4,1.2-4.6-14.8,4-1.2.6,1.8L43,250.2l-.5-1.7,4-1.2,2.8,9.2-4,1.2-.5-1.7L40,258.2l1.4,4.4,5.2-.9-.5-1.7,4-1.2Zm-15.1-4.8-1.1-3.5L26,264.6l.2.7Z"/><path d="M46.4,246.5l-9,1.7-.8-4.1a9.59,9.59,0,0,0,4-1.4,2.21,2.21,0,0,0,.6-1.9,2.07,2.07,0,0,0-1-1.4,3.8,3.8,0,0,0-2.1-.2,4.21,4.21,0,0,0-2,1,20.56,20.56,0,0,0-2.9,3.7,19.58,19.58,0,0,1-4.3,5.2,10.38,10.38,0,0,1-3.7,1.7,7.57,7.57,0,0,1-5.1-.7,5.27,5.27,0,0,1-2.6-3.7,4.11,4.11,0,0,1,0-2.2,5.82,5.82,0,0,1,1.2-2.5L17,242l-.8-4.1,8.3-1.6.8,4.1a7.11,7.11,0,0,0-3.4,1.3,2.21,2.21,0,0,0-.6,1.9,1.74,1.74,0,0,0,.8,1.2,2.26,2.26,0,0,0,1.6.2,3.52,3.52,0,0,0,1.9-1,13.09,13.09,0,0,0,1.9-2.7,26.18,26.18,0,0,1,4.5-6,9.81,9.81,0,0,1,4.5-2.1,8.64,8.64,0,0,1,5.7.8,5.71,5.71,0,0,1,2.9,4,5.9,5.9,0,0,1-1.2,4.6l1.7-.3Z"/><path d="M43.4,229.9l-9.1.8-.4-4.2c2.1-.2,3.5-.5,4.1-1a2,2,0,0,0,.8-1.9,1.65,1.65,0,0,0-.9-1.5,3.08,3.08,0,0,0-2.1-.4,4.85,4.85,0,0,0-2.1.8,17.22,17.22,0,0,0-3.2,3.4,19.5,19.5,0,0,1-4.8,4.7,10.58,10.58,0,0,1-3.9,1.3,7.36,7.36,0,0,1-5-1.2,5.26,5.26,0,0,1-2.2-4,5.5,5.5,0,0,1,.2-2.2,9.46,9.46,0,0,1,1.4-2.4l-1.8.1L14,218l8.4-.7.4,4.2a7.3,7.3,0,0,0-3.5.9,2.34,2.34,0,0,0-.8,1.8,1.71,1.71,0,0,0,.7,1.3,2.93,2.93,0,0,0,1.6.4,3.86,3.86,0,0,0,2-.8,12.66,12.66,0,0,0,2.1-2.5,22.28,22.28,0,0,1,5.1-5.5,11,11,0,0,1,4.6-1.6,8.23,8.23,0,0,1,5.5,1.3,5.57,5.57,0,0,1,2.5,4.3,6.1,6.1,0,0,1-1.6,4.5l1.8-.1Z"/><path d="M42.7,203.7a8.09,8.09,0,0,1-4.1,6.8c-2.7,1.7-6.2,2.4-10.6,2.3s-7.9-1.1-10.5-2.9a8,8,0,0,1-3.7-7.1,8.12,8.12,0,0,1,4.1-6.9c2.7-1.7,6.2-2.4,10.6-2.3s7.9,1.1,10.5,2.9A8.28,8.28,0,0,1,42.7,203.7Zm-4.7-.2a1.51,1.51,0,0,0-.7-1.4,6.81,6.81,0,0,0-2.8-.7c-1.4-.2-3.4-.3-6.3-.4s-4.9-.1-6.3,0a6.71,6.71,0,0,0-2.8.6,1.6,1.6,0,0,0-.8,1.4,1.51,1.51,0,0,0,.7,1.4,6.81,6.81,0,0,0,2.8.7c1.4.2,3.4.3,6.3.4s4.9.1,6.3,0a6.71,6.71,0,0,0,2.8-.6A1.6,1.6,0,0,0,38,203.5Z"/><path d="M34.8,178.6l2.3-4.8a10.64,10.64,0,0,1,6,3.6,7.1,7.1,0,0,1,1.5,5.6,7.6,7.6,0,0,1-4.8,6c-2.8,1.3-6.6,1.6-11.3.9-4.3-.7-7.6-1.9-9.9-3.8s-3.2-3.9-2.9-6a4.85,4.85,0,0,1,2.9-3.6v-.1l-1.9-.3.7-4.4,9.4,1.4-.7,4.4c-3.5-.3-5.3.3-5.5,1.7-.1,1,.5,1.6,1.8,2s3.7.8,7.1,1.4a44.69,44.69,0,0,0,8.2.8c1.3-.1,2.1-.6,2.2-1.6a1.88,1.88,0,0,0-1.1-1.9A14.41,14.41,0,0,0,34.8,178.6Z"/><path d="M45.8,173.8l-4.1-1,.7-2.6-19.1-4.9-.7,2.6-4.1-1,3-11.9,4.1,1-.7,2.8L44,163.7l.7-2.8,4.1,1Z"/><path d="M48.7,161.4l-3.9-1.5.7-1.8-17.4-9.7-.6,1.7-3.9-1.5L29,134.1l3.9,1.5-.7,1.8,19.6,3.8.6-1.6,3.9,1.5-3.3,9-3.9-1.5.6-1.6-5.1-1.2L43,150.1l4.7,2.4.6-1.6,3.9,1.5Zm-9-13L41,145l-11.5-2.7-.3.7Z"/><path d="M57.8,138.3l-3.7-1.9,1-2-17.5-9-1.1,2.1,5.5,2.8L40.1,134l-9.2-4.8L40,111.6l9.2,4.8-1.9,3.7-5.5-2.8-1.1,2.1,17.5,9,1-2,3.7,1.9Z"/><path d="M135.2,30c.4.4.8.6,1,.8a7.4,7.4,0,0,0,2.9.8c.4-.1.5-.3.4-.5-.2-1-.3-1.8-.4-2.5A8.6,8.6,0,0,1,139,27l.1-.1.2-.2a33.11,33.11,0,0,0,4.2-1.2,30.52,30.52,0,0,0,5-2.8c.4.3,1,.7,1.6,1.2s1.4,1,2.3,1.6a.9.9,0,0,0,.5.1c.2,0,.3.1.5.1a4.05,4.05,0,0,1,.9.5,9,9,0,0,0,.8,2.8c.2.5.4.9.6,1.4s.5.9.7,1.4c.1.2,0,.3-.1.4a1.85,1.85,0,0,1-.7.2c-.3.1-.6.2-1,.3a2.92,2.92,0,0,1-.9.2c-.2.1-.5.1-.7.2a.92.92,0,0,0-.1,1,87.75,87.75,0,0,0,1.9,13.5q.75,3.3,1.8,6.9a.9.9,0,0,1-.1.5l-1.3.3c-.5.1-1.1.3-1.8.5l-1,.4c-.4.1-.8.4-1.4.6a14.58,14.58,0,0,0-2.1,1.1,5.39,5.39,0,0,1-1.3-.7,14.63,14.63,0,0,0-1.3-.9,5.07,5.07,0,0,1-1.5-.7l-2.1-2.9c-.3-.3-.5-.7-.8-1s-.6-.7-.9-1h-.1c-.3.1-.3,1.1,0,2.9.1.7.2,1.4.3,2.2s.3,1.5.4,2.3a3.55,3.55,0,0,0,.2,1q.15.6.3,1.5c0,.2-.1.3-.3.4-1.3.5-2.4,1-3.3,1.4s-1.7.7-2.3,1c-.6-.3-1.2-.4-1.5-.6s-.5-.2-.8-.3a7,7,0,0,0-2.5-.5c-.1,0-.2-.1-.4-.1s-.4-.1-.4-.2c-1.2-2.2-2.5-4.4-3.7-6.4s-2.6-4-4-5.9a30.13,30.13,0,0,0-2.2-2.8,27.46,27.46,0,0,0-2.2-2.6.93.93,0,0,0-1.2-.4h0c-.2.1-.5.3-.9.5a4.05,4.05,0,0,1-.9.5c-.2,0-.4-.1-.4-.2l-1.1-3-.5-1.2a6.94,6.94,0,0,1-.5-1.3,3.55,3.55,0,0,0-.4-.9,1.42,1.42,0,0,1,.2-.6,27.69,27.69,0,0,0,4.1-1.2,20.92,20.92,0,0,0,4.6-2.6,9.8,9.8,0,0,1,2.2,1.3c.2.1.4.3.6.4l.6.3a2.22,2.22,0,0,0,1.6.1,4.45,4.45,0,0,0-.1-2.3c-.2-.9-.2-1.4.1-1.5h.3c.2,0,.3-.1.5-.2s.3-.2.4-.2a3,3,0,0,0,1-.2c.2,0,.3-.1.6-.2s.5-.2.7-.3a14.92,14.92,0,0,0,3-1.8C133.6,28.9,134.3,29.2,135.2,30ZM124,36.5c.2.3.3.6.6,1a14.8,14.8,0,0,1,.8,1.3l1,1.4.6.9a4.35,4.35,0,0,0,.6.7,11.68,11.68,0,0,0-.4-3.7C126.8,37.1,125.7,36.6,124,36.5Zm11.7,7.8v.2c.1.1.1.2,0,.2,0,.9.1,1.8.2,2.9s.2,2.4.4,3.8l.4,3.3c.1,1.4.3,2.6.4,3.7a1.27,1.27,0,0,1-.1.6c-.4.2-1,.4-1.6.7s-1.4.6-2.2,1l-.1.3a5.84,5.84,0,0,0,2.2.8,6.47,6.47,0,0,1,1.3.4l4.7-1.9c.1-.1.1-.1.1-.2-.1-.4-.2-1-.4-1.7s-.3-1.4-.5-2.4c-.1-.8-.3-1.6-.4-2.3a14.77,14.77,0,0,1-.1-2.1V49.1a11.78,11.78,0,0,0-1.7-2.2c-.8-1-1.5-1.7-1.9-2.2A2.51,2.51,0,0,1,135.7,44.3Zm1.8-12c-.3,0-.5-.1-.8-.1h-.5a29.22,29.22,0,0,0,4.2,5.1h.1c0-.3-.1-.7-.1-1s-.1-.7-.1-1a4.55,4.55,0,0,0-.5-2C139.6,32.7,138.8,32.4,137.5,32.3ZM152,26.2a5.64,5.64,0,0,0-1.2-.4c-.3-.1-.6-.1-.9-.2l.3.9.3.6a3,3,0,0,1,.4.8c.1.3.3.5.4.8l.3.6v.3l-.1.1c-.1.1-.3.1-.5.2s-.4.1-.6.2-.4.1-.6.2-.4.1-.5.2a1.06,1.06,0,0,0-.7.6c.1,2,.4,4.2.7,6.4s.7,4.6,1.1,7.1c.2,1.2.4,2.4.7,3.6s.5,2.5.8,3.9a1.7,1.7,0,0,1-.1.7c-.3.1-.8.3-1.5.5s-1.2.4-1.5.5a1.61,1.61,0,0,0-.7.4,6.38,6.38,0,0,0-1.4.8.48.48,0,0,0-.2.6l1.2.6c.5.3,1.1.6,1.7.9.1,0,.3-.1.4-.1s.3-.1.5-.2a4.67,4.67,0,0,1,1-.5l1-.5c.2-.1,1.3-.4,3.5-1.1.1-.1.2-.2.2-.3-.3-1.2-.7-2.7-1.1-4.6s-.9-3.9-1.5-6.4a55.76,55.76,0,0,1-1.2-10,1,1,0,0,1,.7-.9c.3-.1.7-.2,1-.3s.7-.2,1-.3a2.09,2.09,0,0,0,.6-.4c-.1-.2-.3-.5-.5-.9s-.4-.7-.5-.9l-.3-1.2c-.1-.2-.1-.5-.2-.7a.9.9,0,0,1-.1-.5A4.53,4.53,0,0,0,152,26.2Z"/><path d="M181.7,49.5q-7,1.2-11.4-3.9c-1.6-2.1-2.7-5.3-3.4-9.4,0-.3-.1-.6-.1-.9a7.38,7.38,0,0,0-.2-1.2l-.3-2.6-.3-2-.6-3a1.23,1.23,0,0,0-1-.2.6.6,0,0,0-.4.1c-.2,0-.3.1-.4.1a1.18,1.18,0,0,1-1-.1c0-.5-.1-1-.1-1.5a11.14,11.14,0,0,0-.2-1.7c-.1-.6-.2-1-.3-1.6s-.2-1-.3-1.6c.1-.1.2-.1.3-.2s.3-.1.4-.2l2.8-.2c.6,0,1.1-.1,1.7-.1a7.77,7.77,0,0,0,1.6-.2c1-.2,2.4-.5,3.9-.9a12.75,12.75,0,0,0,5,4.5c.3,0,.4-.3.3-.8v-.4c0-.2-.1-.3-.1-.5.1.3-.2-.7-.7-3.1.1-.1.2-.3.3-.4,2.5-.3,4.5-.5,5.8-.7a34.1,34.1,0,0,0,5.5-1.4,1.6,1.6,0,0,1,.7.9c.4.6.6.9.7.9a1.79,1.79,0,0,0,.7.5,10,10,0,0,0,1.4.8,5.5,5.5,0,0,1,.9.7V20c0,.3.1.6.1.9.1.5.2,1.2.4,2,.1.4.2.9.3,1.3a1.85,1.85,0,0,1,.2.7.76.76,0,0,1-.5.2h-1a1.06,1.06,0,0,0-.7.6l1.3,6.8c.1.2.1.5.2.7a3.55,3.55,0,0,0,.2,1c.7,4.5.4,7.8-1.1,10C190.4,47,187,48.6,181.7,49.5Zm-7.8-27.9-.3.2a6.75,6.75,0,0,0,.2,1.4c.1.5.2,1.1.3,1.7.1.3.1.6.2,1s.1.9.2,1.5l1.2,6.7c.1.4.1.9.2,1.4s.2,1.3.3,2.1c0,.2.1.3.2.5s.1.5.2.7a3.92,3.92,0,0,0,.8,1,3.4,3.4,0,0,0,1,.1c.3-.1.6-.1.8-.3a1.75,1.75,0,0,0,1-1.5c0-.7-.1-1.4-.1-2.2a24.18,24.18,0,0,0-.3-2.5c-.1-.9-.4-2.1-.7-3.8-.2-.8-.3-1.6-.4-2.2s-.2-1.2-.3-1.6l-.2-1.1c-.2-.2-.3-.5-.5-.7A30.3,30.3,0,0,1,173.9,21.6ZM192.4,35c-.2-1.1-.3-2.4-.5-3.9-.1-.6-.3-1.4-.5-2.3s-.4-2-.7-3.3c-.1-.2.3-.4,1-.6.2,0,.3-.1.4-.1s.2,0,.2-.1a.66.66,0,0,0,.5-.4q-.15-.75-.3-1.8c-.2-.7-.3-1.6-.5-2.6-.2-.2-1-.7-2.3-1.6-.1,0-.2.1-.4.3.1.5.2.9.3,1.4s.2.9.3,1.4l.3.9a1.05,1.05,0,0,1-.9.5,5.85,5.85,0,0,0-1.3.2c-.2,0-.3.1-.2,0-.3.2-.5.4-.5.6q.3,1.65.6,3c.2,1,.4,1.8.5,2.7.3,1.8.5,3.5.7,5.1a34,34,0,0,1,.3,4.5,7.75,7.75,0,0,1-.7,3,7.92,7.92,0,0,1-4.6,4.2,16.2,16.2,0,0,1-4.3,1.2,13.48,13.48,0,0,1-5.3-.1h-.1c-.1,0-.1,0-.1.1,2,1.4,4.6,1.8,7.7,1.3a11.63,11.63,0,0,0,1.8-.4,7.94,7.94,0,0,0,2.2-.6c2.6-1.1,4.5-2.3,5.6-3.8s1.5-3.5,1.3-6.2A23.81,23.81,0,0,1,192.4,35Z"/><path d="M210.4,14.5a18.43,18.43,0,0,1,5.2,1c.9.2,1.4.4,1.5.4a1.52,1.52,0,0,0,.6-.4c.2-.2.4-.4.5-.4.3.1.7.1,1.1.2a5.28,5.28,0,0,0,1.3.1h1.5a9.85,9.85,0,0,0,1.7-.2,6.47,6.47,0,0,1,.8.9l.8,1,.4.4c.2.1.3.3.5.4a5.67,5.67,0,0,1,1.3.8c.2.2.3.3.3.4a20.32,20.32,0,0,0-.7,4.3,16.2,16.2,0,0,0,.1,2.2,18.46,18.46,0,0,0,.4,2.3v.6c-.1.3-.1.4-.3.5a8.42,8.42,0,0,0-2.7-.4,14.26,14.26,0,0,0-4.6.7c-.3-.3-.5-.5-.5-.6l.2-.2c0-.1-.2-.2-.6-.4a5,5,0,0,1-1.1-1,17.41,17.41,0,0,0-1.4-1.2,2.22,2.22,0,0,0-1.1-.5.37.37,0,0,0-.3.1,6.86,6.86,0,0,0-1,3.7,13.42,13.42,0,0,0,.4,3.5,3.55,3.55,0,0,0,.4.9c.8.1,1.4.1,2,.2a7.17,7.17,0,0,0,1.3.1h2.3a19.42,19.42,0,0,0,2.4-.2c.4.1.8.5,1.3,1.3a4.43,4.43,0,0,0,1.2,1.5,2.65,2.65,0,0,1,.6.5l.8.8a1.88,1.88,0,0,1,.2.8,11.33,11.33,0,0,1-2.5,5.3,9.94,9.94,0,0,1-5,3,18,18,0,0,1-6.1.8A13.12,13.12,0,0,1,203.5,43a15.67,15.67,0,0,1-2-3,17.84,17.84,0,0,1-2-6.8c-.1-.6-.1-1.2-.2-1.8V29.5a25.73,25.73,0,0,1,.6-5.5,12.09,12.09,0,0,1,1.6-4.1,11.15,11.15,0,0,1,7-5A3.13,3.13,0,0,1,210.4,14.5Zm13.4,21.2h0a.37.37,0,0,1,.1.3,4.87,4.87,0,0,1-.4,1.1c-.1.4-.3.9-.5,1.5a12.81,12.81,0,0,1-1.1,2,8.18,8.18,0,0,1-4.7,3.2q-.6.15-1.5.3a11,11,0,0,1-1.8.2H212a19.09,19.09,0,0,1-6.2-1.3v.2a11.4,11.4,0,0,0,8.2,3.3,19,19,0,0,0,5.8-.9,9.79,9.79,0,0,0,4.4-2.8,9.52,9.52,0,0,0,2.2-4.5,2.93,2.93,0,0,0-1.3-1.6A6.42,6.42,0,0,0,223.8,35.7ZM213.2,21.1a5,5,0,0,0-1.2.2,3.53,3.53,0,0,0-2.8,2.7,5,5,0,0,0-.2,1.2c-.1.5-.1,1-.2,1.6l-.2,2.2v2.2a11.5,11.5,0,0,0,.2,3.2,5.63,5.63,0,0,0,1.7,2.6,3.16,3.16,0,0,0,1.9.7,4.25,4.25,0,0,0,1.1-.2c.9-.4,1.4-.9,1.4-1.5a12.93,12.93,0,0,1-1.3-6.4,15.48,15.48,0,0,1,1-5.2,4.05,4.05,0,0,1,.5-.9c.1-.2.3-.5.4-.7a1.37,1.37,0,0,0-.5-.8A3.1,3.1,0,0,0,213.2,21.1Zm10.4-3v.5c0,.2-.1.4-.1.7s-.1.5-.1.7v1.4a1.27,1.27,0,0,0,.1.6c0,.2.1.5.1.9s.1.6.1.8v.6a1.19,1.19,0,0,1-.4,1.1,4.87,4.87,0,0,1-1.2.1,4.1,4.1,0,0,1-1.1-.1c-.5,0-.9-.1-1.1-.1s-.3.1-.5.1a1.85,1.85,0,0,0-.7.2c-.2.1-.3.2-.3.4a9,9,0,0,0,2,1.9,15,15,0,0,1,4.2-.4h.9a1.7,1.7,0,0,1,.7.1V22.9a18.59,18.59,0,0,1,.4-3.3,2.07,2.07,0,0,0-.6-1,6.89,6.89,0,0,1-1.3-1.1c-.4-.4-.6-.7-.8-.7s-.2.5-.3,1.3Z"/><path d="M248.4,19.7a6.11,6.11,0,0,0,1.4.7c.2,0,.3-.2.4-.5s.2-.4.4-.4a14.25,14.25,0,0,0,3.5,1.1c.4.1.8.1,1.1.2h1.2c.4.1.7.7,1,1.6a2.38,2.38,0,0,0,.6,1.1c.2.4.6,1,1.1,1.8a2.2,2.2,0,0,1,.1.8,9.85,9.85,0,0,0-1.2,3.4c0,.1-.1.3-.1.4s-.1.3-.1.5a14.92,14.92,0,0,0-.2,2.1v3.3a1.38,1.38,0,0,1-1.1.1.6.6,0,0,1-.4-.1.9.9,0,0,0-.5-.1,1.39,1.39,0,0,0-.9,0,4.42,4.42,0,0,0,.5,1.5c0,.1.1.2.1.3s.1.2.2.3a9.08,9.08,0,0,1,.5,5.4,9.4,9.4,0,0,1-5.2,7,10.6,10.6,0,0,1-7,.9,1.85,1.85,0,0,1-.7-.2c-.2-.1-.5-.1-.7-.2a11.92,11.92,0,0,1-2-.8c-.9-.5-1.6-.8-2-1a1.37,1.37,0,0,1-1.2.4c-.2,0-.3-.1-.5-.1s-.4-.1-.6-.2-.4-.1-.6-.2a.9.9,0,0,0-.5-.1c-.2,0-.5-.1-.8-.1s-.6-.1-.8-.1a1.2,1.2,0,0,1-1-.7,10.3,10.3,0,0,0-2.5-2.6c-.1-.2-.2-.5-.3-.7a35.77,35.77,0,0,0,1.4-5.4,50.25,50.25,0,0,0,.8-5.4.37.37,0,0,1,.5-.2h0a3.55,3.55,0,0,0,1,.2c.3.1.6.1.9.2a1.27,1.27,0,0,0,.6.1,5.85,5.85,0,0,1,1.3.2l1.8.4a10.93,10.93,0,0,0,.8,1.5,1.38,1.38,0,0,1,.3.4,1,1,0,0,1,.4.5,4,4,0,0,1,1,1.2,2.57,2.57,0,0,1-.1,1.5c0,.3.2.4.7.5h.5a2.18,2.18,0,0,0,.7-.9,4.14,4.14,0,0,0-.5-1.9c-.7-.8-1.3-1.5-1.7-2s-.8-.9-1-1.2a27.14,27.14,0,0,1-2.4-3.5,10.52,10.52,0,0,1-1.7-7.5c.1-.5.2-.7.2-.8a6.64,6.64,0,0,1,3.2-3.4,8.57,8.57,0,0,1,5.6-1.2A22.52,22.52,0,0,1,248.4,19.7Zm8.4,4.1c0,.1,0,.1.1.2v.1h0l-.1-.1c-.1,0-.2-.1-.3-.2a14,14,0,0,0-.9,2.9,2.92,2.92,0,0,1-.2.9c-.1.4-.1.8-.2,1.3s-.1.9-.2,1.2a2.92,2.92,0,0,1-.2.9l-.4.4s-1-.2-3.2-.7l-1.4-.3c-.3-.1-.6-.1-.8-.2a1.27,1.27,0,0,0-.6-.1,2,2,0,0,1-.1-1.7,2.77,2.77,0,0,0,.1-.9c0-.5-.4-1.1-1.3-1.8a1.42,1.42,0,0,0-.6-.2,1.23,1.23,0,0,0-1,.2,1.42,1.42,0,0,0-.2.6c-.1.4-.1.7,0,.8a13.73,13.73,0,0,0,1.3,2c.7,1,1.6,2.2,2.8,3.8,1.9,2.4,2.8,4.6,2.7,6.5a3.4,3.4,0,0,1-.1,1c0,.3-.1.6-.1.8a9,9,0,0,1-3.9,5.6,8,8,0,0,1-6.2,1.1,10.83,10.83,0,0,1-3-1.1c-.3-.3-.7-.5-1.2-.9s-1.1-.7-1.7-1.2a2,2,0,0,0-.4.8c-.1.3-.5.3-1.3.2-.2,0-.6-.2-1.1-.3a2,2,0,0,0-1.1-.3h-1a1.05,1.05,0,0,0,.5.9l.6.9a1.55,1.55,0,0,0,1.2,1,.9.9,0,0,1,.5.1H235a.75.75,0,0,1,.5.1.91.91,0,0,1,.7.3q.3,0,.6-.6c.1-.1.2-.2.3-.2a14.54,14.54,0,0,0,6.1,3,10.09,10.09,0,0,0,5.7-.5,8.33,8.33,0,0,0,4-2.9,5.29,5.29,0,0,0,1.1-2.1,6.64,6.64,0,0,0,.6-2,7.82,7.82,0,0,0-2.7-8.1c.1-.3.2-.5.3-.4a5.47,5.47,0,0,0,1.2.2c.6.1,1.4.2,2.5.4.2,0,.3-.2.4-.6a25.6,25.6,0,0,1,.5-5.5,1.85,1.85,0,0,1,.2-.7l.3-.9.3-.9c.1-.2.1-.4.2-.6A2.35,2.35,0,0,0,256.8,23.8ZM239,37.9a5.24,5.24,0,0,0-1-1.1h-.3c-.1.5.3,1.3,1.1,2.4.1.1.1.1.2.1s.2,0,.4-.2A1.37,1.37,0,0,0,239,37.9Z"/><path d="M272.6,24.7a4.67,4.67,0,0,1,1,.5c.4.2.8.4,1.3.7l3,1.6c1.1.6,2.1,1.1,3.1,1.6s1.8.8,2.6,1.2a48.11,48.11,0,0,0,8.4,2.6,21.72,21.72,0,0,0,3.3,5.7c.1.2.1.5-.2,1,0,.2-.1.3-.2.5s-.2.5-.3.7-.2.5-.3.7-.2.3-.2.5-.1.3-.1.5-.1.4-.1.6-.1.4-.1.6a.76.76,0,0,1-.2.5.87.87,0,0,1-1,.7c-.1,0-.1,0-.2-.1l-1.5-.5c-.3.8-.6,3.5-.6,8.1v2.1a3.4,3.4,0,0,0,.1,1,2.11,2.11,0,0,0,.5,1.3.37.37,0,0,1,.1.3c0,.1.1.1.1.2a5.55,5.55,0,0,0,.6.8,9,9,0,0,0,.9,1,19,19,0,0,0-2,3.7,5.78,5.78,0,0,0-.5,1.4l-.6,1.8q-.45,1.2-1.2.9a8.64,8.64,0,0,1-1.6-1c-.7-.5-1.5-1-2.3-1.5a23.94,23.94,0,0,0-2.8-1.3,5.25,5.25,0,0,0-3-.6,1.27,1.27,0,0,1-.6-.1,6.36,6.36,0,0,1-2.2-2.4,11,11,0,0,0-2-2.3c-.3.1-.4.2-.4.3,0-.1,0,0-.1.4s-.2,1-.4,1.8h-.2l-1.5-.9c-.4-.3-.7-.5-1-.7a1.76,1.76,0,0,1-.5-.4c-.4-.2-.9-.5-1.4-.7s-1-.5-1.6-.7a12.6,12.6,0,0,0-3.3-1,1.27,1.27,0,0,0-.6.1c-.1,0-.2-.1-.3-.2a4.63,4.63,0,0,1-1.3-1.8,10.93,10.93,0,0,0-.8-1.5l-.3-.6a7.71,7.71,0,0,0-2.3-2.1q-.15,0,0-.3c0,.1,0,0,.1-.2s.4-.7.7-1.3l.3-.6.3-.6c0-.1.1-.2.2-.4s.1-.3.2-.5l.3-.8a5.56,5.56,0,0,1,.9-1.7c.1-.2.2-.2.4-.2s.3.2.5.4.4.3.5.4c.6.2,1.3-.1,2-1,.2-.3.5-.6.7-.9a10.63,10.63,0,0,0,.9-1.1l2.8-3.1a26.39,26.39,0,0,0,3.8-5,.83.83,0,0,0-.2-1.2c-.1,0-.1-.1-.2-.1-.6-.2-1.1-.3-1.4-.4s-.5-.1-.6-.2h.1c.1,0,.1,0,.1-.1h0Zm.6,29.9a14.17,14.17,0,0,0,.8-1.8c.1-.1.1-.3.2-.5s.2-.5.3-.7.2-.5.3-.7.1-.4.2-.5c.3-.6.5-.9.8-.8s.3.1.4.3.3.3.5.3a1.27,1.27,0,0,0,.6.1.91.91,0,0,0,.7-.3c.1-.2-.3-.7-1.2-1.3-.6-.4-1.1-.6-1.4-.8-.1-.1-.3-.1-.5-.2a1.42,1.42,0,0,0-.6-.2,1.85,1.85,0,0,0-.7-.2c-.2-.1-.3-.1-.4-.2-1.2-.5-1.9-.4-2.1.1a.48.48,0,0,0,.2.6h.1a.6.6,0,0,0,.4.1.37.37,0,0,0,.3.1,2.7,2.7,0,0,1,.8.7l-2.1,4.7c0,.6-.1,1-.1,1.2a.48.48,0,0,1-.6.2c-.3-.2-.5-.3-.8-.5s-.3-.2-.5-.3-.3-.1-.4-.2c-.9-.4-1.7-.8-2.5-1.2s-1.4-.6-2-.9c-2.4-1-3.7-1.4-3.9-1v.2l.8,1.4a3,3,0,0,0,.4.8,3.55,3.55,0,0,1,.4.9,1.65,1.65,0,0,0,1,1,6.64,6.64,0,0,0,2,.6,6.64,6.64,0,0,1,2,.6c.3.1.5.2.8.3a1.61,1.61,0,0,1,.7.4l3.2,1.6c.3.1.5.1.5,0,.1-.3.1-.6.2-1l.3-1.2C272.5,55.9,272.8,55.3,273.2,54.6Zm16,1.7a1.21,1.21,0,0,0-.5-.5,10.93,10.93,0,0,0-.8,1.5,7.94,7.94,0,0,0-.6,2.2l-.3,1.2a2.35,2.35,0,0,0-.2.8.49.49,0,0,1-.6.3h0a2.09,2.09,0,0,1-.6-.4,26.24,26.24,0,0,0-5.1-3c-1.2-.5-2-.9-2.6-1.2l-1.2-.5c-1.1-.5-1.8-.6-1.9-.3-.2.5.6,1.8,2.2,3.9a5,5,0,0,0,1.2.8c1,.3,2,.5,3,.8a6.36,6.36,0,0,1,1.8.6,15.09,15.09,0,0,1,2.8,1.5,17.39,17.39,0,0,0,1.8,1.1c.5.2.8.1,1-.4,0-.1.1-.2.1-.3s.1-.2.1-.4l.2-.6c0-.1.1-.2.1-.3s.1-.2.1-.3c.1-.3.2-.5.3-.8a5.36,5.36,0,0,1,.5-1.1c.4-.8.7-1.5.9-1.9.1-.2,0-.4-.2-.7-.1-.1-.1-.1-.2-.1l-.2-.2C290.1,57.8,289.8,57.2,289.2,56.3ZM278,41.1c0-.9-.1-1.4-.4-1.5-.7-.1-1.3.6-2,2.3,0,.1.1.2.5.4.1.1.3.1.6.2s.6.2,1,.3A4.67,4.67,0,0,0,278,41.1Zm15.8-3.2c-.2-.3-.3-.7-.6-1.1a3.64,3.64,0,0,0-1.4-1.6c-.3-.1-.5-.1-.7.2s-.1.5-.2.7-.2.6-.3,1a8.45,8.45,0,0,1-.5,1.7c-.2.6-.6.8-1.1.5l-1.4-.8c-.4-.2-.7-.1-.8.2a1.7,1.7,0,0,0-.1.7v3.3c0,1.2,0,2.6-.1,4.2v2.9s-.1.7-.2,2.1a2.3,2.3,0,0,0,1.5,2.5c.6.3,1,.3,1,.1a.9.9,0,0,0,.1-.5c0-.3,0-.4.1-.5V50.9a3.4,3.4,0,0,1,.1-1,24.52,24.52,0,0,0,.2-2.7c0-1.7.1-2.7.1-2.8a4.53,4.53,0,0,1,.3-1.6c.2-.4.5-.6.8-.4.1,0,.1,0,.2.1s.1.1.2.2a2.09,2.09,0,0,0,.6.4c.5.2,1-.2,1.4-1.4.1-.2.1-.4.2-.5a1.42,1.42,0,0,0,.2-.6l.4-1c.1-.2.1-.4.2-.6a.37.37,0,0,0,.1-.3C294,38.4,293.9,38.2,293.8,37.9Z"/></g></g></svg>